<svg width="16" height="18" viewBox="0 0 16 18" fill="none" xmlns="http://www.w3.org/2000/svg">
<path d="M10.6667 3H12C12.3536 3 12.6928 3.15804 12.9428 3.43934C13.1929 3.72064 13.3334 4.10218 13.3334 4.5V15C13.3334 15.3978 13.1929 15.7794 12.9428 16.0607C12.6928 16.342 12.3536 16.5 12 16.5H4.00002C3.6464 16.5 3.30726 16.342 3.05721 16.0607C2.80716 15.7794 2.66669 15.3978 2.66669 15V4.5C2.66669 4.10218 2.80716 3.72064 3.05721 3.43934C3.30726 3.15804 3.6464 3 4.00002 3H5.33335" stroke="#D4D4D4" stroke-width="2" stroke-linecap="round" stroke-linejoin="round"/>
<path d="M9.99998 1.5H5.99998C5.63179 1.5 5.33331 1.83579 5.33331 2.25V3.75C5.33331 4.16421 5.63179 4.5 5.99998 4.5H9.99998C10.3682 4.5 10.6666 4.16421 10.6666 3.75V2.25C10.6666 1.83579 10.3682 1.5 9.99998 1.5Z" stroke="#D5D5D5" stroke-width="2" stroke-linecap="round" stroke-linejoin="round"/>
</svg>
